<?xml version="1.0" encoding="UTF-8" standalone="no"?>
<!-- Created with Inkscape (http://www.inkscape.org/) -->

<svg
   xmlns:dc="http://purl.org/dc/elements/1.1/"
   xmlns:cc="http://creativecommons.org/ns#"
   xmlns:rdf="http://www.w3.org/1999/02/22-rdf-syntax-ns#"
   xmlns:svg="http://www.w3.org/2000/svg"
   xmlns="http://www.w3.org/2000/svg"
   xmlns:sodipodi="http://sodipodi.sourceforge.net/DTD/sodipodi-0.dtd"
   xmlns:inkscape="http://www.inkscape.org/namespaces/inkscape"
   width="40"
   height="30"
   viewBox="0 0 10.583333 7.9375002"
   version="1.1"
   id="svg8"
   inkscape:version="0.92.1 r15371"
   sodipodi:docname="logo.svg">
  <defs
     id="defs2" />
  <sodipodi:namedview
     id="base"
     pagecolor="#ffffff"
     bordercolor="#666666"
     borderopacity="1.0"
     inkscape:pageopacity="0.0"
     inkscape:pageshadow="2"
     inkscape:zoom="9.38"
     inkscape:cx="44.205582"
     inkscape:cy="13.825188"
     inkscape:document-units="mm"
     inkscape:current-layer="g3739"
     showgrid="false"
     showguides="false"
     inkscape:snap-grids="false"
     units="px"
     inkscape:window-width="1366"
     inkscape:window-height="705"
     inkscape:window-x="-8"
     inkscape:window-y="-8"
     inkscape:window-maximized="1" />
  <metadata
     id="metadata5">
    <rdf:RDF>
      <cc:Work
         rdf:about="">
        <dc:format>image/svg+xml</dc:format>
        <dc:type
           rdf:resource="http://purl.org/dc/dcmitype/StillImage" />
        <dc:title></dc:title>
      </cc:Work>
    </rdf:RDF>
  </metadata>
  <g
     inkscape:label="Layer 1"
     inkscape:groupmode="layer"
     id="layer1"
     transform="translate(0,-289.06248)">
    <g
       id="g3739"
       transform="matrix(3.4463654,0,0,2.03531,-56.888823,-302.87935)">
      <path
         style="fill:#d45500;stroke-width:0.0408542"
         d="m 17.886429,294.61296 c -0.04278,-0.0645 -0.07778,-0.13449 -0.07778,-0.15566 0,-0.0212 -0.038,-0.0391 -0.08444,-0.0399 -0.100829,-0.002 -0.187609,-0.0743 -0.247201,-0.20691 -0.06725,-0.14962 -0.05236,-0.29774 0.04745,-0.47202 0.05011,-0.0875 0.09655,-0.21537 0.103209,-0.28416 0.0088,-0.0906 0.03551,-0.12901 0.0971,-0.13937 0.107731,-0.0181 0.07108,-0.0969 -0.04509,-0.0969 -0.09813,0 -0.190233,-0.10555 -0.153518,-0.17594 0.01332,-0.0255 0.120324,-0.0484 0.237796,-0.0509 0.163556,-0.003 0.191608,-0.0128 0.119759,-0.04 -0.0516,-0.0196 -0.155091,-0.0376 -0.22997,-0.04 -0.149052,-0.005 -0.241545,-0.0973 -0.206273,-0.20626 0.01837,-0.0567 0.06579,-0.0649 0.25753,-0.0445 0.160956,0.0171 0.211357,0.0118 0.159948,-0.0168 -0.04128,-0.023 -0.144967,-0.0433 -0.230408,-0.045 -0.172623,-0.003 -0.344083,-0.13141 -0.297026,-0.22164 0.02064,-0.0396 0.109261,-0.0482 0.315598,-0.0307 0.185135,0.0157 0.253617,0.0106 0.193071,-0.0144 -0.0516,-0.0213 -0.154639,-0.0408 -0.228966,-0.0432 -0.263121,-0.009 -0.348278,-0.0745 -0.423711,-0.32766 -0.211329,-0.70931 -0.200022,-0.68728 -0.414589,-0.80757 -0.330614,-0.18533 -0.328032,-0.39057 0.003,-0.24252 0.255616,0.1143 0.352374,0.23878 0.456813,0.58772 0.0478,0.1597 0.106912,0.30939 0.131357,0.33264 0.02445,0.0233 0.262634,0.0856 0.52931,0.13846 0.266675,0.0529 0.450033,-0.15285 0.516044,0.11903 0.01245,0.0513 0.03101,0.10488 -0.05988,0.13192 -0.140134,0.0417 -0.216133,0.16826 -0.202437,0.33727 0.0094,0.11571 0.0436,0.17276 0.154582,0.2576 0.120645,0.0922 0.140839,0.12985 0.131357,0.24467 -0.01156,0.14002 -0.0364,0.1503 -0.212024,0.0877 -0.152552,-0.0544 -0.08095,0.12559 0.08733,0.21949 0.139705,0.0779 0.144113,0.0863 0.07677,0.1446 -0.0393,0.0341 -0.101167,0.0619 -0.137489,0.0619 -0.168626,0 -0.448699,0.105 -0.536102,0.20098 -0.129061,0.14173 -0.13085,0.34851 -0.0039,0.4471 0.08708,0.0676 0.09881,0.0663 0.192714,-0.0212 0.110325,-0.10284 0.207125,-0.11718 0.31768,-0.0471 0.05278,0.0335 0.126108,0.0274 0.267058,-0.0222 0.220835,-0.0777 0.405863,-0.0891 0.405863,-0.025 0,0.024 0.0481,0.032 0.108006,0.0178 0.107117,-0.0254 0.260626,0.0405 0.313637,0.13454 0.05507,0.0977 0.02675,0.28022 -0.05814,0.37472 -0.183047,0.20377 -0.456836,0.0608 -0.449763,-0.23492 0.0035,-0.14739 -0.0047,-0.16261 -0.07687,-0.14212 -0.04445,0.0126 -0.144151,0.0365 -0.221558,0.0532 -0.112583,0.0242 -0.140739,0.0499 -0.140739,0.1287 0,0.26562 -0.342864,0.38908 -0.485173,0.1747 z m 1.235782,-0.55059 c -0.05004,-0.0389 -0.05004,-0.0487 0,-0.0876 0.03096,-0.0241 0.103334,-0.0441 0.160825,-0.0445 0.09295,-6.1e-4 0.100081,0.009 0.06436,0.0883 -0.04335,0.096 -0.135141,0.11383 -0.225183,0.0438 z m -0.363209,-0.74455 c 0.153113,-0.19323 -0.0086,-0.37848 -0.05901,-0.54072 -0.03088,-0.0994 -0.140739,-0.13602 -0.140739,-0.23838 0,-0.11562 0.01038,-0.1277 0.08953,-0.10416 0.05549,0.0165 0.10639,0.003 0.133868,-0.0367 0.0356,-0.0508 0.02512,-0.0782 -0.05317,-0.13901 0,0 -0.09094,-0.0835 -0.0829,-0.093 0.03102,-0.0368 0.761574,0.12703 0.841557,0.18868 0.1652,0.12733 0.10152,0.16646 -0.219318,0.13475 -0.238811,-0.0236 -0.30036,-0.0178 -0.28785,0.027 0.0094,0.0336 0.130047,0.0752 0.29438,0.10145 0.205825,0.0329 0.278466,0.0619 0.278466,0.11118 0,0.0545 -0.04977,0.064 -0.272096,0.0521 -0.15961,-0.009 -0.272096,0.003 -0.272096,0.0286 0,0.0607 0.0953,0.0971 0.256401,0.0979 0.07572,3.8e-4 0.160944,0.0181 0.189391,0.0395 0.09619,0.0722 0.0025,0.13998 -0.176441,0.12761 -0.19925,-0.0138 -0.260427,0.0652 -0.07678,0.0991 0.281122,0.0519 0.109688,0.16894 -0.361462,0.24677 0,0 -0.164992,0.13026 -0.187652,0.031 -0.01588,-0.0695 0.105921,-0.13367 0.105921,-0.13367 z m -0.223949,-0.1672 c -0.02985,-0.0922 0.01479,-0.21046 0.07113,-0.18847 0.02579,0.0101 0.05201,0.0592 0.05826,0.10922 0.01357,0.10856 -0.09781,0.17679 -0.129395,0.0792 z m -0.176982,-0.54154 c -0.0464,-0.055 -0.02337,-0.1915 0.0323,-0.1915 0.03096,0 0.0563,0.0388 0.0563,0.0863 0,0.0928 -0.04946,0.15155 -0.08859,0.10518 z"
         id="path3741"
         inkscape:connector-curvature="0"
         sodipodi:nodetypes="cscccccsccccccccccccccccccasscccccscccccsccccccsccccccccsaccccccccscscccccsssccccccsccc" />
    </g>
  </g>
</svg>
